<?xml version="1.0" encoding="UTF-8" standalone="no"?><!DOCTYPE svg PUBLIC "-//W3C//DTD SVG 1.1//EN" "http://www.w3.org/Graphics/SVG/1.1/DTD/svg11.dtd"><svg width="100%" height="100%" viewBox="0 0 1369 1419" version="1.1" xmlns="http://www.w3.org/2000/svg" xmlns:xlink="http://www.w3.org/1999/xlink" xml:space="preserve" xmlns:serif="http://www.serif.com/" style="fill-rule:evenodd;clip-rule:evenodd;stroke-linejoin:round;stroke-miterlimit:2;"><g id="Layer-1" serif:id="Layer 1"><path d="M200.079,394.552l39.441,0l-0,-202.982l69.947,0l0,-37.044l-178.984,0l0,37.044l69.596,0l0,202.982Z" style="fill:#919a3d;fill-rule:nonzero;"/><path d="M362.645,394.552l39.44,0l-0,-101.497l99.088,-0l0,101.497l39.427,0l0,-240.026l-39.427,0l0,103.216l-99.088,0l-0,-103.216l-39.44,0l-0,240.026Z" style="fill:#919a3d;fill-rule:nonzero;"/><path d="M617.793,394.552l138.529,0l-0,-35.312l-99.089,-0l0,-66.185l99.089,-0l-0,-35.313l-99.089,0l0,-67.89l99.089,-0l-0,-35.326l-138.529,0l-0,240.026Z" style="fill:#919a3d;fill-rule:nonzero;"/><path d="M226.487,743.326c47.656,-0 79.544,-27.774 79.544,-68.92c0,-32.578 -15.078,-53.828 -45.26,-66.172l-35.313,-14.401c-28.112,-11.328 -39.778,-22.291 -39.778,-38.75c-0,-18.177 13.021,-29.83 35.664,-29.83c26.745,-0 41.146,15.091 41.146,41.484l39.427,-0c-0,-45.26 -31.537,-75.091 -79.206,-75.091c-45.26,-0 -76.797,26.745 -76.797,65.833c0,30.521 15.755,52.123 45.938,63.776l39.088,15.781c27.083,10.964 35.664,20.222 35.664,38.399c0,21.601 -14.401,33.607 -40.456,33.607c-29.83,-0 -47.669,-18.868 -47.669,-50.065l-39.427,-0c0,53.828 31.888,84.349 87.435,84.349" style="fill:#919a3d;fill-rule:nonzero;"/><path d="M610.887,617.483c-0,-68.568 -46.289,-125.833 -124.128,-125.833c-77.825,-0 -124.127,57.265 -124.127,125.833c-0,68.581 46.302,125.846 124.127,125.846c25.234,0 47.07,-6.093 65.169,-16.549l29.232,32.096l27.787,-25.299l-28.086,-30.847c19.414,-22.565 30.026,-52.578 30.026,-85.247m-124.128,90.521c-53.138,-0 -82.969,-40.794 -82.63,-90.521c-0.339,-49.713 29.492,-90.521 82.63,-90.521c53.151,0 82.982,40.808 82.643,90.521c0.144,21.029 -5.169,40.417 -15.299,55.846l-42.149,-46.289l-27.786,25.3l42.187,46.341c-11.21,5.911 -24.414,9.323 -39.596,9.323" style="fill:#919a3d;fill-rule:nonzero;"/><path d="M1170.12,1388.08c-3.984,21.094 -18.75,30.326 -37.096,30.326c-21.263,-0 -41.706,-17.097 -41.706,-40.235c-0,-24.609 16.263,-47.122 41.081,-47.122c21.263,-0 37.33,14.388 37.526,37.109l-58.998,0l0,8.555c0,20.638 2.709,37.318 25.43,37.318c13.06,-0 26.628,-10.183 29.18,-25.951l4.583,0Zm-19.284,-26.094l0,-7.096c0,-15.013 -8.763,-19.805 -19.193,-19.805c-12.5,0 -18.138,11.68 -18.554,13.138c-1.25,3.75 -1.875,8.542 -2.084,13.763l39.831,0Z" style="fill:#231f20;fill-rule:nonzero;"/><path d="M896.681,1297.63l-0,4.844l13.776,-0l0,49.726l-50.859,0l-0,-49.726l13.763,-0l-0,-4.844l-44.688,-0l0,4.844l13.789,-0l0,108.294l-13.789,-0l0,4.831l44.688,-0l-0,-4.831l-13.763,-0l-0,-53.438l50.859,0l0,53.438l-13.776,-0l-0,4.831l44.687,-0l0,-4.831l-13.789,-0l0,-108.294l13.789,-0l0,-4.844l-44.687,-0Z" style="fill:#231f20;fill-rule:nonzero;"/><path d="M949.072,1415.57l-0,-4.791l11.627,-0l0,-72.982l-11.588,-0l-0,-4.792l4.492,0c7.721,0 15.846,-0.208 23.359,-2.083l0,79.857l11.237,-0l0,4.791l-39.127,0Z" style="fill:#231f20;fill-rule:nonzero;"/><path d="M1008.15,1337.8l-11.472,-0l0,-4.792l4.388,-0c3.959,-0 7.917,-0 11.667,-0.417c3.971,-0.208 7.93,-0.833 11.68,-1.666l-0,22.096l0.416,-0c5.834,-13.138 13.972,-22.096 29.193,-22.096c7.5,-0 24.818,1.666 24.818,20.846l-0,59.01l11.25,0l-0,4.792l-38.36,0l0,-4.792l10.847,0l-0,-56.302c-0,-15.221 -4.805,-17.513 -13.138,-17.513c-14.18,0 -25.026,19.388 -25.026,35.026l-0,38.789l11.263,0l-0,4.792l-38.998,0l0,-4.792l11.472,0l-0,-72.981Z" style="fill:#231f20;fill-rule:nonzero;"/><path d="M1234.7,1333l-0,23.359l-4.584,0c-3.138,-12.096 -10.221,-20.651 -22.734,-21.276c-17.096,-0.416 -19.596,12.722 -19.596,15.222c-0,6.054 1.666,9.179 33.567,15.638c16.055,3.333 21.68,10.638 21.68,23.776c0,17.929 -13.542,28.567 -30.013,28.567c-8.763,0 -17.943,-3.554 -23.984,-10.221l-4.584,7.5l-4.596,0l0,-27.513l4.805,0c3.958,15.013 14.179,26.055 29.609,26.055c9.375,-0 20.221,-7.084 20.221,-17.93c0,-8.125 -11.471,-11.888 -28.776,-16.263c-13.763,-3.333 -25.859,-5.208 -25.859,-23.346c0,-8.763 5.43,-25.651 28.151,-25.651c6.471,-0 12.93,2.5 19.401,7.708l3.75,-5.625l3.542,0Z" style="fill:#231f20;fill-rule:nonzero;"/><rect x="960.104" y="1297.64" width="16.523" height="16.523" style="fill:#231f20;"/><path d="M0,1234.95l1234.95,-0l-0,-1234.95l-1234.95,0l0,1234.95Zm34.297,-1200.66l1166.35,-0l0,1166.37l-1166.35,0l-0,-1166.37Z" style="fill:#919a3d;fill-rule:nonzero;"/><path d="M1273.2,0.001l0,5.586l16.628,0l0,44.323l6.641,0l-0,-44.323l16.64,0l0,-5.586l-39.909,0Z" style="fill:#919a3d;fill-rule:nonzero;"/><path d="M1359.38,0.001l-15.794,41.94l-15.729,-41.94l-9.089,0l0,49.909l6.289,0l0,-41.523l0.143,-0l15.586,41.523l5.651,0l15.599,-41.523l0.144,-0l-0,41.523l6.276,0l-0,-49.909l-9.076,0Z" style="fill:#919a3d;fill-rule:nonzero;"/></g></svg>